<svg width="168" height="23" viewBox="0 0 168 23" fill="none" xmlns="http://www.w3.org/2000/svg">
<circle cx="8.5" cy="11" r="8" stroke="white"/>
<path d="M27.52 2.98C28.08 2.98 28.5333 3.02667 28.88 3.12C29.24 3.2 29.4733 3.27333 29.58 3.34L29.32 4.46C29.1733 4.39333 28.9533 4.32667 28.66 4.26C28.38 4.18 28.02 4.14 27.58 4.14C26.66 4.14 26 4.37333 25.6 4.84C25.2133 5.30667 25.02 6.05333 25.02 7.08V8.16H29.18V9.26H25.02V18.5H23.72V7.04C23.72 5.69333 24.0267 4.68 24.64 4C25.2667 3.32 26.2267 2.98 27.52 2.98ZM34.4995 17.56C35.0062 17.56 35.4462 17.5467 35.8195 17.52C36.2062 17.48 36.5329 17.4333 36.7995 17.38V13.74C36.6529 13.6733 36.4195 13.6067 36.0995 13.54C35.7795 13.46 35.3395 13.42 34.7795 13.42C34.4595 13.42 34.1262 13.4467 33.7795 13.5C33.4329 13.54 33.1129 13.64 32.8195 13.8C32.5262 13.9467 32.2862 14.1533 32.0995 14.42C31.9129 14.6867 31.8195 15.04 31.8195 15.48C31.8195 15.8667 31.8795 16.1933 31.9995 16.46C32.1329 16.7267 32.3129 16.94 32.5395 17.1C32.7795 17.26 33.0595 17.38 33.3795 17.46C33.7129 17.5267 34.0862 17.56 34.4995 17.56ZM34.3795 7.92C35.0595 7.92 35.6329 8.02 36.0995 8.22C36.5795 8.40667 36.9662 8.67333 37.2595 9.02C37.5529 9.35333 37.7662 9.75333 37.8995 10.22C38.0329 10.6867 38.0995 11.1933 38.0995 11.74V18.26C37.9662 18.3 37.7729 18.3467 37.5195 18.4C37.2662 18.44 36.9729 18.4867 36.6395 18.54C36.3062 18.5933 35.9329 18.6333 35.5195 18.66C35.1195 18.7 34.7062 18.72 34.2795 18.72C33.7329 18.72 33.2262 18.66 32.7595 18.54C32.3062 18.42 31.9062 18.2333 31.5595 17.98C31.2262 17.7133 30.9595 17.38 30.7595 16.98C30.5729 16.5667 30.4795 16.0667 30.4795 15.48C30.4795 14.92 30.5862 14.44 30.7995 14.04C31.0129 13.64 31.3129 13.3133 31.6995 13.06C32.0862 12.7933 32.5462 12.6 33.0795 12.48C33.6129 12.36 34.1929 12.3 34.8195 12.3C35.0062 12.3 35.1995 12.3133 35.3995 12.34C35.6129 12.3533 35.8129 12.38 35.9995 12.42C36.1995 12.4467 36.3662 12.48 36.4995 12.52C36.6462 12.5467 36.7462 12.5733 36.7995 12.6V11.96C36.7995 11.6 36.7729 11.2533 36.7195 10.92C36.6662 10.5733 36.5462 10.2667 36.3595 10C36.1862 9.72 35.9329 9.5 35.5995 9.34C35.2795 9.16667 34.8529 9.08 34.3195 9.08C33.5595 9.08 32.9929 9.13333 32.6195 9.24C32.2462 9.34667 31.9729 9.43333 31.7995 9.5L31.6195 8.36C31.8462 8.25333 32.1929 8.15333 32.6595 8.06C33.1395 7.96667 33.7129 7.92 34.3795 7.92ZM44.1753 12.88C44.5886 13.16 45.0286 13.52 45.4953 13.96C45.9753 14.4 46.442 14.88 46.8953 15.4C47.362 15.9067 47.7953 16.4333 48.1953 16.98C48.6086 17.5133 48.9553 18.02 49.2353 18.5H47.6953C47.3753 17.9667 47.0086 17.4467 46.5953 16.94C46.1953 16.42 45.7686 15.9333 45.3153 15.48C44.8753 15.0267 44.4286 14.6133 43.9753 14.24C43.5353 13.8667 43.1153 13.5533 42.7153 13.3V18.5H41.4153V3.22L42.7153 2.98V12.82C43.0486 12.5 43.422 12.1333 43.8353 11.72C44.2486 11.3067 44.662 10.8867 45.0753 10.46C45.502 10.0333 45.902 9.62 46.2753 9.22C46.6486 8.82 46.9686 8.46667 47.2353 8.16H48.7953C48.4886 8.48 48.142 8.84 47.7553 9.24C47.3686 9.64 46.962 10.06 46.5353 10.5C46.122 10.9267 45.7086 11.3467 45.2953 11.76C44.882 12.1733 44.5086 12.5467 44.1753 12.88ZM50.4047 13.32C50.4047 12.4133 50.5314 11.6267 50.7847 10.96C51.0514 10.28 51.3914 9.71333 51.8047 9.26C52.2314 8.80667 52.7114 8.47333 53.2447 8.26C53.7914 8.03333 54.3514 7.92 54.9247 7.92C56.1914 7.92 57.198 8.33333 57.9447 9.16C58.7047 9.98667 59.0847 11.26 59.0847 12.98C59.0847 13.0867 59.078 13.1933 59.0647 13.3C59.0647 13.4067 59.058 13.5067 59.0447 13.6H51.7847C51.8247 14.8667 52.138 15.84 52.7247 16.52C53.3114 17.2 54.2447 17.54 55.5247 17.54C56.2314 17.54 56.7914 17.4733 57.2047 17.34C57.618 17.2067 57.918 17.0933 58.1047 17L58.3447 18.12C58.158 18.2267 57.8047 18.3533 57.2847 18.5C56.778 18.6467 56.178 18.72 55.4847 18.72C54.578 18.72 53.8047 18.5867 53.1647 18.32C52.5247 18.0533 51.998 17.68 51.5847 17.2C51.1714 16.72 50.8714 16.1533 50.6847 15.5C50.498 14.8333 50.4047 14.1067 50.4047 13.32ZM57.7447 12.5C57.718 11.42 57.4647 10.58 56.9847 9.98C56.5047 9.38 55.8247 9.08 54.9447 9.08C54.478 9.08 54.058 9.17333 53.6847 9.36C53.3247 9.54667 53.0047 9.8 52.7247 10.12C52.458 10.4267 52.2447 10.7867 52.0847 11.2C51.938 11.6133 51.8514 12.0467 51.8247 12.5H57.7447ZM68.6525 17.58C69.3992 17.58 70.0125 17.46 70.4925 17.22C70.9858 16.9667 71.2325 16.5467 71.2325 15.96C71.2325 15.68 71.1858 15.44 71.0925 15.24C71.0125 15.04 70.8725 14.86 70.6725 14.7C70.4725 14.54 70.2058 14.3867 69.8725 14.24C69.5525 14.0933 69.1525 13.92 68.6725 13.72C68.2858 13.56 67.9192 13.4 67.5725 13.24C67.2258 13.0667 66.9192 12.8733 66.6525 12.66C66.3858 12.4333 66.1725 12.1667 66.0125 11.86C65.8525 11.5533 65.7725 11.18 65.7725 10.74C65.7725 9.9 66.0858 9.22 66.7125 8.7C67.3525 8.18 68.2258 7.92 69.3325 7.92C70.0392 7.92 70.6192 7.98 71.0725 8.1C71.5392 8.22 71.8658 8.32667 72.0525 8.42L71.7525 9.58C71.5925 9.5 71.3192 9.39333 70.9325 9.26C70.5592 9.12667 70.0058 9.06 69.2725 9.06C68.9792 9.06 68.6992 9.09333 68.4325 9.16C68.1792 9.21333 67.9525 9.30667 67.7525 9.44C67.5525 9.56 67.3925 9.72 67.2725 9.92C67.1525 10.1067 67.0925 10.34 67.0925 10.62C67.0925 10.9 67.1458 11.14 67.2525 11.34C67.3592 11.54 67.5125 11.72 67.7125 11.88C67.9258 12.0267 68.1792 12.1667 68.4725 12.3C68.7792 12.4333 69.1258 12.58 69.5125 12.74C69.9125 12.9 70.2925 13.0667 70.6525 13.24C71.0258 13.4 71.3525 13.6 71.6325 13.84C71.9125 14.0667 72.1392 14.3467 72.3125 14.68C72.4858 15 72.5725 15.4067 72.5725 15.9C72.5725 16.8333 72.2192 17.54 71.5125 18.02C70.8192 18.5 69.8658 18.74 68.6525 18.74C67.7458 18.74 67.0525 18.66 66.5725 18.5C66.0925 18.3533 65.7725 18.24 65.6125 18.16L65.9525 16.98C65.9925 17.0067 66.0792 17.0533 66.2125 17.12C66.3458 17.1733 66.5258 17.24 66.7525 17.32C66.9792 17.3867 67.2458 17.4467 67.5525 17.5C67.8725 17.5533 68.2392 17.58 68.6525 17.58ZM75.0872 18.5V3.22L76.3872 2.98V8.46C76.8139 8.3 77.2472 8.18 77.6872 8.1C78.1272 8.00667 78.5672 7.96 79.0072 7.96C79.8072 7.96 80.4739 8.07333 81.0072 8.3C81.5405 8.52667 81.9672 8.85333 82.2872 9.28C82.6072 9.69333 82.8272 10.1933 82.9472 10.78C83.0805 11.3667 83.1472 12.0133 83.1472 12.72V18.5H81.8472V13.14C81.8472 12.4067 81.7939 11.7867 81.6872 11.28C81.5939 10.7733 81.4272 10.36 81.1872 10.04C80.9605 9.72 80.6539 9.49333 80.2672 9.36C79.8805 9.21333 79.3939 9.14 78.8072 9.14C78.5805 9.14 78.3339 9.16 78.0672 9.2C77.8139 9.24 77.5739 9.28667 77.3472 9.34C77.1205 9.38 76.9139 9.42667 76.7272 9.48C76.5539 9.53333 76.4405 9.57333 76.3872 9.6V18.5H75.0872ZM95.2939 13.34C95.2939 14.1533 95.1739 14.8933 94.9339 15.56C94.7072 16.2267 94.3806 16.7933 93.9539 17.26C93.5406 17.7267 93.0472 18.0933 92.4739 18.36C91.9006 18.6133 91.2672 18.74 90.5739 18.74C89.8806 18.74 89.2472 18.6133 88.6739 18.36C88.1006 18.0933 87.6006 17.7267 87.1739 17.26C86.7606 16.7933 86.4339 16.2267 86.1939 15.56C85.9672 14.8933 85.8539 14.1533 85.8539 13.34C85.8539 12.5267 85.9672 11.7867 86.1939 11.12C86.4339 10.4533 86.7606 9.88667 87.1739 9.42C87.6006 8.94 88.1006 8.57333 88.6739 8.32C89.2472 8.05333 89.8806 7.92 90.5739 7.92C91.2672 7.92 91.9006 8.05333 92.4739 8.32C93.0472 8.57333 93.5406 8.94 93.9539 9.42C94.3806 9.88667 94.7072 10.4533 94.9339 11.12C95.1739 11.7867 95.2939 12.5267 95.2939 13.34ZM93.9139 13.34C93.9139 12.0467 93.6139 11.02 93.0139 10.26C92.4139 9.48667 91.6006 9.1 90.5739 9.1C89.5472 9.1 88.7339 9.48667 88.1339 10.26C87.5339 11.02 87.2339 12.0467 87.2339 13.34C87.2339 14.6333 87.5339 15.66 88.1339 16.42C88.7339 17.18 89.5472 17.56 90.5739 17.56C91.6006 17.56 92.4139 17.18 93.0139 16.42C93.6139 15.66 93.9139 14.6333 93.9139 13.34ZM99.4145 16.64C99.5345 16.7333 99.6812 16.8333 99.8545 16.94C100.041 17.0467 100.255 17.1467 100.495 17.24C100.735 17.3333 100.995 17.4133 101.275 17.48C101.555 17.5333 101.848 17.56 102.155 17.56C102.795 17.56 103.328 17.4533 103.755 17.24C104.195 17.0133 104.548 16.7133 104.815 16.34C105.081 15.9533 105.275 15.5067 105.395 15C105.515 14.48 105.575 13.9333 105.575 13.36C105.575 12 105.235 10.96 104.555 10.24C103.875 9.50667 102.975 9.14 101.855 9.14C101.215 9.14 100.695 9.17333 100.295 9.24C99.9079 9.29333 99.6145 9.35333 99.4145 9.42V16.64ZM99.4145 22.2H98.1145V8.52C98.5012 8.38667 98.9945 8.26 99.5945 8.14C100.195 8.02 100.955 7.96 101.875 7.96C102.635 7.96 103.321 8.08667 103.935 8.34C104.561 8.58 105.095 8.93333 105.535 9.4C105.988 9.86667 106.335 10.4333 106.575 11.1C106.828 11.7667 106.955 12.52 106.955 13.36C106.955 14.1467 106.848 14.8733 106.635 15.54C106.435 16.1933 106.135 16.76 105.735 17.24C105.335 17.7067 104.841 18.0733 104.255 18.34C103.681 18.6067 103.021 18.74 102.275 18.74C101.595 18.74 101.001 18.6467 100.495 18.46C100.001 18.26 99.6412 18.0733 99.4145 17.9V22.2Z" fill="white"/>
<rect x="114.5" y="3" width="31" height="16" rx="8" stroke="white"/>
<circle cx="159.5" cy="11" r="8" stroke="white"/>
</svg>
